<svg xmlns="http://www.w3.org/2000/svg" viewBox="0 0 64 64" fill="#a566ff">
  <path d="M32 0C14.3 0 0 14.3 0 32 0 49.7 14.3 64 32 64 49.7 64 64 49.7 64 32v0C64.1 14.3 49.7 0 32 0Zm-1.4 47.8c-1.7 1.2-3.9 2-6 2-3.7 0-7.1-2-9.7-5.7-2.3-3.5-3.6-7.7-3.7-11.9 0-0.2 0.1-0.3 0.3-0.4l2.5-1.1c0.2-0.1 0.4 0 0.5 0.2 0 0.1 0.1 0.1 0.1 0.2v0c0 4.2 1.1 8.2 3.1 11.1 1.9 2.8 4.4 4.3 6.9 4.3 1.4 0 2.8-0.4 3.9-1.2 0.2-0.1 0.4-0.1 0.5 0.1 0.5 0.7 1 1.3 1.6 1.9 0.1 0.2 0.1 0.4-0.1 0.6 0 0 0 0 0 0zm18.5-3.7c-2.5 3.6-6 5.7-9.7 5.7-3.7 0-7.1-2.1-9.7-5.7-2.4-3.5-3.7-8.1-3.7-13 0-4.5 2.6-8.1 5.9-8.1 3.3 0 5.9 3.5 5.9 8.1 0.1 4-0.9 7.8-2.7 11.3-0.1 0.2-0.4 0.3-0.5 0.2-0.1 0-0.1-0.1-0.1-0.1-0.3-0.4-0.6-0.7-0.9-1.1-0.3-0.5-0.6-0.9-0.8-1.4-0.1-0.1-0.1-0.3 0-0.4 1.2-2.7 1.7-5.7 1.7-8.6 0-2.2-1.1-4.7-2.6-4.7-1.5 0-2.6 2.5-2.6 4.7 0 4.2 1.1 8.2 3.1 11.1 1.9 2.8 4.4 4.3 6.9 4.3 2.6 0 5-1.5 6.9-4.3 2-2.9 3.1-6.9 3.1-11.1 0-4.2-1.1-8.2-3.1-11.1-0.6-0.9-1.3-1.6-2.1-2.3-0.2-0.2-0.2-0.4-0.1-0.6 0.1-0.1 0.1-0.1 0.2-0.1L46.9 15.8c0.2-0.1 0.3-0.1 0.4 0.1 0.7 0.7 1.2 1.4 1.7 2.1 2.4 3.5 3.7 8.1 3.7 13 0 4.9-1.3 9.6-3.7 13z" />
</svg>
